<svg width="17" height="22" viewBox="0 0 17 22" fill="none" xmlns="http://www.w3.org/2000/svg">
<path d="M8.34805 1.00531C6.4786 0.933761 4.65617 1.58768 3.27921 2.82402C1.90225 4.06036 1.08279 5.77852 1 7.60295V7.99885C1 15.7746 8.34805 21.0056 8.34805 21.0056C8.34805 21.0056 15.6961 15.605 15.6961 7.99885C15.6808 6.13888 14.9131 4.36015 13.5603 3.05022C12.2075 1.74028 10.3791 1.00525 8.47358 1.00531H8.34805Z" stroke="#060606" stroke-linecap="round" stroke-linejoin="round"/>
<path d="M5.57684 8.00826C5.57684 7.46766 5.74107 6.93916 6.04876 6.48967C6.35645 6.04018 6.79377 5.68988 7.30544 5.483C7.81711 5.27613 8.38013 5.22199 8.92331 5.32745C9.46649 5.43292 9.96544 5.69321 10.357 6.07547C10.7487 6.45773 11.0153 6.94478 11.1234 7.47499C11.2314 8.0052 11.176 8.55477 10.964 9.05421C10.7521 9.55366 10.3932 9.98058 9.93272 10.2809C9.47223 10.5813 8.93085 10.7415 8.37702 10.7415V10.7415C7.63437 10.7415 6.92213 10.4536 6.397 9.94099C5.87186 9.4284 5.57684 8.73318 5.57684 8.00826V8.00826Z" stroke="#060606" stroke-linecap="round" stroke-linejoin="round"/>
</svg>
