<svg width="62" height="62" viewBox="0 0 62 62" fill="none" xmlns="http://www.w3.org/2000/svg">
<circle cx="31" cy="31" r="31" fill="url(#paint0_linear_83:527)"/>
<path d="M45.8752 30.8065C46.4986 29.9827 46.8438 28.9733 46.8438 27.9231C46.8438 26.2569 45.9123 24.6798 44.4131 23.8003C44.0271 23.5739 43.5877 23.4548 43.1402 23.4552H34.2414L34.4641 18.8944C34.516 17.7923 34.1264 16.7458 33.3693 15.9479C32.9978 15.5547 32.5496 15.2418 32.0524 15.0286C31.5552 14.8154 31.0195 14.7065 30.4785 14.7085C28.5488 14.7085 26.8418 16.0073 26.3297 17.8665L23.142 29.4075H18.3438C17.6869 29.4075 17.1562 29.9382 17.1562 30.595V44.1028C17.1562 44.7597 17.6869 45.2903 18.3438 45.2903H40.6576C40.999 45.2903 41.333 45.2235 41.641 45.0899C43.4074 44.3366 44.5467 42.611 44.5467 40.6962C44.5467 40.2286 44.4799 39.7685 44.3463 39.3231C44.9697 38.4993 45.3148 37.4899 45.3148 36.4397C45.3148 35.9722 45.248 35.512 45.1145 35.0667C45.7379 34.2429 46.083 33.2335 46.083 32.1833C46.0756 31.7157 46.0088 31.2519 45.8752 30.8065V30.8065ZM19.8281 42.6185V32.0794H22.834V42.6185H19.8281ZM43.4445 29.5188L42.6318 30.2239L43.1477 31.1665C43.3176 31.477 43.4057 31.8256 43.4037 32.1796C43.4037 32.7919 43.1365 33.3745 42.6764 33.7753L41.8637 34.4804L42.3795 35.4229C42.5494 35.7334 42.6375 36.0821 42.6355 36.436C42.6355 37.0483 42.3684 37.631 41.9082 38.0317L41.0955 38.7368L41.6113 39.6794C41.7813 39.9899 41.8694 40.3385 41.8674 40.6925C41.8674 41.5237 41.3775 42.2733 40.6205 42.6147H25.209V31.9606L28.9014 18.5827C28.9966 18.2398 29.201 17.9373 29.4836 17.721C29.7661 17.5047 30.1115 17.3864 30.4674 17.3841C30.7494 17.3841 31.0277 17.4657 31.2504 17.6327C31.6178 17.9073 31.8145 18.3229 31.7922 18.7645L31.4359 26.127H43.1031C43.7637 26.5315 44.1719 27.2144 44.1719 27.9231C44.1719 28.5354 43.9047 29.1144 43.4445 29.5188Z" fill="white"/>
<defs>
<linearGradient id="paint0_linear_83:527" x1="3" y1="44" x2="40" y2="38" gradientUnits="userSpaceOnUse">
<stop stop-color="#F2A902"/>
<stop offset="1" stop-color="#FFC901"/>
</linearGradient>
</defs>
</svg>
